# xmcd
#
# Track frame offsets: 
#        150
#        22306
#        39567
#        64441
#        77201
#        99350
#        113423
#        129588
#        153931
#        166206
#        184708
#        200290
#        224517
#        244623
#        261000
#
# Disc length: 3779 seconds
#
# Revision: 2
# Processed by: cddbd v1.5.2PL0 Copyright (c) Steve Scherf et al.
# Submitted via: ExactAudioCopy v0.99pb5
#
DISCID=cb0ec10f
DTITLE=Various Artist - Blues Jams 1
DYEAR=2005
DGENRE=Blues
TTITLE0=Eric Clapton and B.B. King - Let Me Love You Baby (2000)
TTITLE1=Eric Clapton and Duane Allman - Mean old World (1970)
TTITLE2=Eric Clapton, George Benson and B.B. King - Rock Me Baby (1999)
TTITLE3=Eric Clapton and B.B. King - Rock Me Baby (1999)
TTITLE4=Eric Clapton - Early in the morning (1999)
TTITLE5=Eric Clapton - Ramblin' On My Mind (1999)
TTITLE6=Eric Clapton and Lenny Kravitz - All Along The Watchtower (1999)
TTITLE7=Eric Clapton - Worried Life Blues (1992)
TTITLE8=Eric Clapton and Big Town Playboys - It`s My Life Baby (1987)
TTITLE9=Eric Clapton and Robert Cray - Before You Accuse Me (1990)
TTITLE10=Eric Clapton and David Sanborn - Hard Times (1990)
TTITLE11=Eric Clapton and Dr. John - St.James Infirmary (1996)
TTITLE12=Eric Clapton - Cryin' Cristmas Tears (1999)
TTITLE13=Eric Clapton and Jools Holland - Reconsider Baby (1996)
TTITLE14=Eric Clapton and Jools Holland - Third Degree (1996)
EXTD=
EXTT0=
EXTT1=
EXTT2=
EXTT3=
EXTT4=
EXTT5=
EXTT6=
EXTT7=
EXTT8=
EXTT9=
EXTT10=
EXTT11=
EXTT12=
EXTT13=
EXTT14=
PLAYORDER=
